<?xml version="1.0" encoding="UTF-8" standalone="no"?>
<svg
   xmlns:dc="http://purl.org/dc/elements/1.1/"
   xmlns:cc="http://creativecommons.org/ns#"
   xmlns:rdf="http://www.w3.org/1999/02/22-rdf-syntax-ns#"
   xmlns:svg="http://www.w3.org/2000/svg"
   xmlns="http://www.w3.org/2000/svg"
   xmlns:sodipodi="http://sodipodi.sourceforge.net/DTD/sodipodi-0.dtd"
   xmlns:inkscape="http://www.inkscape.org/namespaces/inkscape"
   id="svg2"
   version="1.1"
   inkscape:version="0.48.2 r9819"
   width="350"
   height="196"
   xml:space="preserve"
   sodipodi:docname="flow.svg"><sodipodi:namedview
     pagecolor="#ffffff"
     bordercolor="#666666"
     borderopacity="1"
     objecttolerance="10"
     gridtolerance="10"
     guidetolerance="10"
     inkscape:pageopacity="0"
     inkscape:pageshadow="2"
     inkscape:window-width="1123"
     inkscape:window-height="651"
     id="namedview63"
     showgrid="false"
     inkscape:zoom="1.63"
     inkscape:cx="160.80274"
     inkscape:cy="130.4232"
     inkscape:window-x="0"
     inkscape:window-y="0"
     inkscape:window-maximized="0"
     inkscape:current-layer="g10" /><metadata
     id="metadata8"><rdf:RDF><cc:Work
         rdf:about=""><dc:format>image/svg+xml</dc:format><dc:type
           rdf:resource="http://purl.org/dc/dcmitype/StillImage" /><dc:title /></cc:Work></rdf:RDF></metadata><defs
     id="defs6"><clipPath
       clipPathUnits="userSpaceOnUse"
       id="clipPath18"><path
         d="M 0,0 720,0 720,540 0,540 0,0 z"
         id="path20"
         inkscape:connector-curvature="0" /></clipPath></defs><g
     id="g10"
     inkscape:groupmode="layer"
     inkscape:label="flow"
     transform="matrix(1.25,0,0,-1.25,-208.79238,470.52946)"><g
       id="g12" /><path
       d="m 167.07288,389.21864 262.4,0 0,-180.8 -262.4,0 0,180.8 z"
       style="fill:#ffffff;fill-opacity:0;fill-rule:evenodd;stroke:none"
       id="path22"
       inkscape:connector-curvature="0" /><g
       id="g24"
       transform="matrix(0.9999954,0,0,1.000054,233.00898,376.31154)"><text
         transform="matrix(1,0,0,-1,21.71777,-11)"
         id="text26"><tspan
           style="font-size:11px;font-variant:normal;font-weight:normal;writing-mode:lr-tb;fill:#c0504d;fill-opacity:1;fill-rule:nonzero;stroke:none;font-family:Arial;-inkscape-font-specification:ArialMT"
           x="0 7.3369999 9.7812004 15.8994 22.017599 27.517599 30.5734 33.6292 39.747398 43.4104 46.466202 49.521999 55.640202 61.7584 64.814201 72.151199 77.651199 83.769402 89.887604 92.331802 98.449997 104.5682"
           y="0"
           id="tspan28">Plans for the Evening </tspan></text>
</g><g
       id="g30"
       transform="matrix(0.9999954,0,0,1.000054,173.94668,315.80204)"><text
         transform="matrix(1,0,0,-1,10.65039,-10)"
         id="text32"><tspan
           style="font-size:10px;font-variant:normal;font-weight:normal;writing-mode:lr-tb;fill:#404040;fill-opacity:1;fill-rule:nonzero;stroke:none;font-family:Arial;-inkscape-font-specification:ArialMT"
           x="0 8.3299999 13.892 18.892 24.454 27.232 30.562 36.124001 41.124001 46.686001 50.015999 55.015999 60.577999 63.355999 65.578003 71.139999 76.702003 81.702003"
           y="0"
           id="tspan34">Make reservations </tspan></text>
</g><g
       id="g36"
       transform="matrix(0.9999954,0,0,1.000054,173.94668,303.80144)"><text
         transform="matrix(1,0,0,-1,25.65771,-10)"
         id="text38"><tspan
           style="font-size:10px;font-variant:normal;font-weight:normal;writing-mode:lr-tb;fill:#404040;fill-opacity:1;fill-rule:nonzero;stroke:none;font-family:Arial;-inkscape-font-specification:ArialMT"
           x="0 6.6700001 12.232 17.232 20.01 22.788 25.01 30.572001 37.793999 43.355999 46.686001 51.686001"
           y="0"
           id="tspan40">Buy flowers </tspan></text>
</g><g
       id="g42"
       transform="matrix(0.9999954,0,0,1.000054,173.94668,291.80074)"><text
         transform="matrix(1,0,0,-1,17.59131,-10)"
         id="text44"><tspan
           style="font-size:10px;font-variant:normal;font-weight:normal;writing-mode:lr-tb;fill:#404040;fill-opacity:1;fill-rule:nonzero;stroke:none;font-family:Arial;-inkscape-font-specification:ArialMT"
           x="0 6.6700001 12.232 17.232 20.01 25.01 30.572001 36.133999 41.133999 46.695999 48.917999 54.48 57.257999 62.82 67.82"
           y="0"
           id="tspan46">Buy chocolates </tspan></text>
</g><g
       id="g48"
       transform="matrix(0.9999954,0,0,1.000054,173.94668,279.80014)"><text
         transform="matrix(1,0,0,-1,28.70703,-10)"
         id="text50"><tspan
           style="font-size:10px;font-variant:normal;font-weight:normal;writing-mode:lr-tb;fill:#404040;fill-opacity:1;fill-rule:nonzero;stroke:none;font-family:Arial;-inkscape-font-specification:ArialMT"
           x="0 6.6700001 12.232 15.01 17.788 23.35 25.572001 31.134001 36.695999 42.257999 45.588001"
           y="0"
           id="tspan52">Eat dinner </tspan></text>
</g><g
       id="g54"
       transform="matrix(0.9999954,0,0,1.000054,173.94668,267.79944)"><text
         transform="matrix(1,0,0,-1,0.6430664,-10)"
         id="text56"><tspan
           style="font-size:10px;font-variant:normal;font-weight:normal;writing-mode:lr-tb;fill:#404040;fill-opacity:1;fill-rule:nonzero;stroke:none;font-family:Arial;-inkscape-font-specification:ArialMT"
           x="0 6.6700001 12.232 17.232"
           y="0"
           id="tspan58">Pay </tspan></text>
</g><g
       id="g60"
       transform="matrix(0.9999954,0,0,1.000054,173.94668,267.79944)"><text
         transform="matrix(1,0,0,-1,20.65283,-10)"
         id="text62"><tspan
           style="font-size:10px;font-variant:normal;font-weight:normal;writing-mode:lr-tb;fill:#404040;fill-opacity:1;fill-rule:nonzero;stroke:none;font-family:Arial;-inkscape-font-specification:ArialMT"
           x="0 7.2220001 12.784 18.346001"
           y="0"
           id="tspan64">Uber</tspan></text>
</g><g
       id="g66"
       transform="matrix(0.9999954,0,0,1.000054,173.94668,267.79944)"><text
         transform="matrix(1,0,0,-1,45.10564,-10)"
         id="text68"><tspan
           style="font-size:10px;font-variant:normal;font-weight:normal;writing-mode:lr-tb;fill:#404040;fill-opacity:1;fill-rule:nonzero;stroke:none;font-family:Arial;-inkscape-font-specification:ArialMT"
           x="0 5 10.562 13.892 19.454 25.016001 27.794001 33.355999 36.686001 38.908001 43.908001 46.130001 51.692001 57.254002"
           y="0"
           id="tspan70">surge pricing </tspan></text>
</g><g
       id="g72"
       transform="matrix(0.9999954,0,0,1.000054,173.94668,255.79884)"><text
         transform="matrix(1,0,0,-1,29.54443,-10)"
         id="text74"><tspan
           style="font-size:10px;font-variant:normal;font-weight:normal;writing-mode:lr-tb;fill:#404040;fill-opacity:1;fill-rule:nonzero;stroke:none;font-family:Arial;-inkscape-font-specification:ArialMT"
           x="0 7.7779999 13.34 16.118 18.896 24.458 30.02 38.349998 43.911999"
           y="0"
           id="tspan76">Get home </tspan></text>
</g><g
       id="g78"
       transform="matrix(0.9999954,0,0,1.000054,173.94668,243.79814)"><text
         transform="matrix(1,0,0,-1,20.0083,-10)"
         id="text80"><tspan
           style="font-size:10px;font-variant:normal;font-weight:normal;writing-mode:lr-tb;fill:#404040;fill-opacity:1;fill-rule:nonzero;stroke:none;font-family:Arial;-inkscape-font-specification:ArialMT"
           x="0 5.737 11.299 14.629 20.191 22.969 28.531 34.092999 36.870998 45.201 50.763 55.763 57.985001 62.985001"
           y="0"
           id="tspan82">Turn on music </tspan></text>
</g><g
       id="g84"
       transform="matrix(0.9999954,0,0,1.000054,173.94668,231.79744)"><text
         transform="matrix(1,0,0,-1,3.428711,-10)"
         id="text86"><tspan
           style="font-size:10px;font-variant:normal;font-weight:normal;writing-mode:lr-tb;fill:#404040;fill-opacity:1;fill-rule:nonzero;stroke:none;font-family:Arial;-inkscape-font-specification:ArialMT"
           x="0 6.6700001 12.232 19.454"
           y="0"
           id="tspan88">Bow </tspan></text>
</g><g
       id="g90"
       transform="matrix(0.9999954,0,0,1.000054,173.94668,231.79744)"><text
         transform="matrix(1,0,0,-1,25.66016,-10)"
         id="text92"><tspan
           style="font-size:10px;font-variant:normal;font-weight:normal;writing-mode:lr-tb;fill:#404040;fill-opacity:1;fill-rule:nonzero;stroke:none;font-family:Arial;-inkscape-font-specification:ArialMT"
           x="0 5 10.562 12.784 17.784 22.784"
           y="0"
           id="tspan94">chicka</tspan></text>
</g><g
       id="g96"
       transform="matrix(0.9999954,0,0,1.000054,173.94668,231.79744)"><text
         transform="matrix(1,0,0,-1,56.78288,-10)"
         id="text98"><tspan
           style="font-size:10px;font-variant:normal;font-weight:normal;writing-mode:lr-tb;fill:#404040;fill-opacity:1;fill-rule:nonzero;stroke:none;font-family:Arial;-inkscape-font-specification:ArialMT"
           x="0 7.2179999 12.776 19.993999 22.771999 29.99 35.548 42.765999"
           y="0"
           id="tspan100">wow wow </tspan></text>
</g><g
       id="g102"
       transform="matrix(0.9999954,0,0,1.000054,347.57108,315.80204)"><text
         transform="matrix(1,0,0,-1,6.26123,-10)"
         id="text104"><tspan
           style="font-size:10px;font-variant:normal;font-weight:normal;writing-mode:lr-tb;fill:#404040;fill-opacity:1;fill-rule:nonzero;stroke:none;font-family:Arial;-inkscape-font-specification:ArialMT"
           x="0 7.2220001 12.784 18.346001 23.346001 28.908001 31.686001 37.248001 40.026001 42.804001 50.026001 55.588001 58.917999 64.480003 69.480003"
           y="0"
           id="tspan106">House of Cards </tspan></text>
</g><g
       id="g108"
       transform="matrix(0.9999954,0,0,1.000054,193.44658,337.43064)"><text
         transform="matrix(1,0,0,-1,14.5708,-11)"
         id="text110"><tspan
           style="font-size:11px;font-variant:normal;font-weight:normal;writing-mode:lr-tb;fill:#c0504d;fill-opacity:1;fill-rule:nonzero;stroke:none;font-family:Arial;-inkscape-font-specification:ArialMT"
           x="0 7.9442 14.0624 20.180599 26.2988 28.743 34.861198"
           y="0"
           id="tspan112">Couple </tspan></text>
</g><g
       id="g114"
       transform="matrix(0.9999954,0,0,1.000054,356.57098,337.43064)"><text
         transform="matrix(1,0,0,-1,9.06543,-11)"
         id="text116"><tspan
           style="font-size:11px;font-variant:normal;font-weight:normal;writing-mode:lr-tb;fill:#c0504d;fill-opacity:1;fill-rule:nonzero;stroke:none;font-family:Arial;-inkscape-font-specification:ArialMT"
           x="0 7.3369999 9.7812004 15.8994 22.017599 24.4618 30.58 33.635799 39.754002 45.8722"
           y="0"
           id="tspan118">Singleton </tspan></text>
</g><g
       id="g120"
       transform="matrix(0,-7.874444e-5,-7.873979e-5,0,306.80868,359.31134)"><path
         d="m -0.2,-0.2 116075,0 0,1035844.2 116075,0"
         style="fill:none;stroke:#919191;stroke-width:9525;stroke-linecap:butt;stroke-linejoin:round;stroke-miterlimit:10;stroke-opacity:1;stroke-dasharray:none"
         id="path122"
         inkscape:connector-curvature="0" /></g><g
       id="g124"
       transform="matrix(0,-7.874444e-5,7.873979e-5,0,306.80858,359.31144)"><path
         d="m -0.1,-0.1 116075,0 0,1035845.1 116075,0"
         style="fill:none;stroke:#919191;stroke-width:9525;stroke-linecap:butt;stroke-linejoin:round;stroke-miterlimit:10;stroke-opacity:1;stroke-dasharray:none"
         id="path126"
         inkscape:connector-curvature="0" /></g></g></svg>